PathFileType	4	(X/Y/Z)	3_coords_data.trc
DataRate	CameraRate	NumFrames	NumMarkers	Units	OrigDataRate	OrigDataStartFrame	OrigNumFrames
30.0	30.0	4	21	m	30.0	1	78
Frame#	Time	THUMB_TIP	THUMB_IP	THUMB_MCP	THUMB_CMC	INDEX_TIP	INDEX_DIP	INDEX_PIP	INDEX_MCP	MIDDLE_TIP	MIDDLE_DIP	MIDDLE_PIP	MIDDLE_MCP	RING_TIP	RING_DIP	RING_PIP	RING_MCP	PINKY_TIP	PINKY_DIP	PINKY_PIP	PINKY_MCP	WRIST
X1	Y1	Z1	X2	Y2	Z2	X3	Y3	Z3	X4	Y4	Z4	X5	Y5	Z5	X6	Y6	Z6	X7	Y7	Z7	X8	Y8	Z8	X9	Y9	Z9	X10	Y10	Z10	X11	Y11	Z11	X12	Y12	Z12	X13	Y13	Z13	X14	Y14	Z14	X15	Y15	Z15	X16	Y16	Z16	X17	Y17	Z17	X18	Y18	Z18	X19	Y19	Z19	X20	Y20	Z20	X21	Y21	Z21
0	-2.749317978547796e-18	0.466876486417826	-0.022414380208386264	-0.17134001640692897	0.47642585261159687	-0.02109752058425174	-0.1504815532318149	0.47454122093055773	-0.02689067381959076	-0.11995766850167755	0.47825350459742444	-0.02656595589266042	-0.0755054074990622	0.5013678812261446	-0.018405575950282693	-0.10005907230086086	0.5191601834115959	-0.021021320041041625	-0.097916208377686	0.5358224079063051	-0.005320122756642287	-0.108301414765827	0.4993441626876024	0.014245239691792033	-0.11830992674441787	0.510312596790068	-0.02223714457844539	-0.09317352088003006	0.5197965892001405	-0.01830955151911784	-0.07825280036371429	0.5389619628024198	0.0007479062979361961	-0.08915744644858403	0.5045961298742112	0.026884048232896918	-0.1006482920617684	0.5024297466131555	-0.001331054373217233	-0.07281002515552615	0.5189877918640438	-0.004720542233191294	-0.06653766439448705	0.5356942843209362	0.0129982672297414	-0.07174505145558518	0.5052610893679412	0.03774619999967732	-0.08154715850293659	0.5265550837625316	0.006981365777800175	-0.06175757411581295	0.5168419942647325	-0.0028793383299382524	-0.05168670489278293	0.5271901130924336	0.015374667912996909	-0.05240761529682836	0.5013219754282623	0.03908390488220237	-0.060749976301097686	0.4622830810018609	-0.023011742144276925	-0.051989820119430985
1	0.03333333333333339	0.4673356597868975	-0.022732856993419426	-0.17166890061399048	0.4770588439028758	-0.021612107716526552	-0.15087939336381423	0.4748390231746681	-0.026951904031825902	-0.12029542744626631	0.4777794861146235	-0.026798968574906823	-0.07578452666404478	0.5009497215405441	-0.018276593540426656	-0.1000770522195964	0.5188002684746934	-0.020724660397469563	-0.09824267417372423	0.5355393584074042	-0.005244941638544165	-0.10883469987087935	0.49883069164431637	0.013920078556556859	-0.11877511633086468	0.5031208172967534	-0.019457972399336	-0.08709387202705687	0.5192363270251851	-0.017816415168151023	-0.07899475873919815	0.5384988313455102	0.001316735193815699	-0.08959136359810582	0.503885928675281	0.02718162732514906	-0.10095368047345021	0.5016037668300927	-0.0022668980365413427	-0.07214467369370192	0.5186811051093053	-0.004256120006051023	-0.06672180422695695	0.5353874714591581	0.013464863319529452	-0.07192219386226406	0.5047807200293744	0.03800092308958036	-0.08171654794387284	0.5261347572840467	0.007360799623134406	-0.06189595309302254	0.516654638996417	-0.0025564228072291195	-0.05165993548268	0.5272884584313058	0.015529965938385293	-0.05244507583235769	0.5012566550727195	0.0391598692737245	-0.060498418819119215	0.4622830810018609	-0.023011742144276925	-0.051989820119430985
2	0.06666666666666676	0.4676831267111866	-0.0229706028245652	-0.17190752316696123	0.47753594147435263	-0.02200265236262855	-0.15117144077066536	0.47505230015045896	-0.02699580548949676	-0.12054922746682506	0.47739419674885786	-0.026975574281672854	-0.07600256529084781	0.5006232426406643	-0.018154891869257006	-0.1000700703180164	0.5185140432659938	-0.020482217300217265	-0.09848804335139527	0.5353059495769317	-0.005170700872928702	-0.10923974926913504	0.4984219806229948	0.013682389531522343	-0.11912761609705236	0.5013018382134788	-0.018048464930015662	-0.08426462722265093	0.518776837977299	-0.01742534453757738	-0.07954910983523611	0.538112901130619	0.001766568989252315	-0.08990269215777114	0.5033197843594903	0.02742626261907677	-0.10117952988712364	0.5010392215028036	-0.003032568860115714	-0.07156268389170706	0.518420694702969	-0.0038688877190760085	-0.06685259258069376	0.5351313058553936	0.01384932922618587	-0.07204876830839047	0.5043863892860319	0.03821151828236147	-0.08184441446033719	0.5253666139372646	0.007761477730619415	-0.062283876166216556	0.5164968789442155	-0.002287487656823739	-0.05163746382237744	0.5273345819054477	0.015675579104773907	-0.05246477636457869	0.5011745482309385	0.0392387269323804	-0.06029511183650549	0.4622830810018609	-0.023011742144276925	-0.051989820119430985
3	0.10000000000000014	0.4679378889387915	-0.02314328632937379	-0.17207402714865022	0.47788310871041617	-0.02229103535157373	-0.15137701596430464	0.47519208196898743	-0.027022554330217496	-0.12073079102171747	0.4771021865047541	-0.027097441628428864	-0.0761635845515446	0.5003841023527972	-0.01803786315148015	-0.10004735286605815	0.5183006735550182	-0.020290070020560935	-0.09866025496951003	0.5351242921909957	-0.00509507457846059	-0.10952707614710111	0.49811317949295486	0.013527108286945144	-0.11937735209147526	0.5005815319345247	-0.0173066566573149	-0.08305891155815082	0.5184196300779774	-0.017124974801844273	-0.07993333219938525	0.5378078129928422	0.0021113086838506767	-0.09010551539266909	0.5028902458802178	0.02762279958509606	-0.10133383939632346	0.5006683719497899	-0.0035937876499686494	-0.07110346688054203	0.5182075390690843	-0.0035536318762603436	-0.06693501341728969	0.5349252188264023	0.01415847267977599	-0.0721292905304014	0.5040736431777306	0.03838166411391475	-0.08193429490262605	0.5216678394286706	0.008354870064493869	-0.06411147880541235	0.5163606163368751	-0.002069587728223521	-0.05161491676692487	0.5273339716152569	0.015809808693617367	-0.05246619611301362	0.5010786729824752	0.03931938056498341	-0.06013710056610977	0.462283081001861	-0.023011742144276925	-0.051989820119430985
